<svg width="161" height="42" viewBox="0 0 161 42" fill="none" xmlns="http://www.w3.org/2000/svg">
<g clip-path="url(#clip0_865_308)">
<mask id="mask0_865_308" style="mask-type:luminance" maskUnits="userSpaceOnUse" x="0" y="10" width="161" height="22">
<path d="M161 10.5H0V31.5H161V10.5Z" fill="white"/>
</mask>
<g mask="url(#mask0_865_308)">
<path d="M13.5648 17.5H6.67125C6.21109 17.5 5.76914 17.6783 5.43966 17.997L0.26809 22.9985C-0.298472 23.5464 0.0926068 24.5 0.883885 24.5H9.75873C10.2189 24.5 10.6608 24.3217 10.9903 24.003L16.6867 18.494C17.3457 17.8567 18.2296 17.5 19.1499 17.5H34V10.5H22.9559C22.4958 10.5 22.0538 10.6783 21.7243 10.997L16.028 16.506C15.369 17.1433 14.4851 17.5 13.5648 17.5Z" fill="#2E58DB"/>
<path d="M33.9999 24.5H14.8131C14.3529 24.5 13.9109 24.6783 13.5815 24.997L8.40994 29.9985C7.84338 30.5464 8.23445 31.5 9.02573 31.5H33.9999V24.5Z" fill="#2E58DB"/>
<path d="M49.1 14H51.3L56.4 28H54.36L53.04 24.16H47.26L45.92 28H44L49.1 14ZM52.44 22.44L50.2 15.9H50.16L47.86 22.44H52.44Z" fill="#151515"/>
<path d="M58.4031 14H63.0031C64.6965 14 65.9165 14.3333 66.6631 15C67.4231 15.6533 67.8031 16.5667 67.8031 17.74C67.8031 19.0867 67.2165 20.0733 66.0431 20.7V20.74C67.4831 21.3267 68.2031 22.4333 68.2031 24.06C68.2031 25.3267 67.8231 26.3 67.0631 26.98C66.3165 27.66 65.0965 28 63.4031 28H58.4031V14ZM60.2831 15.72V19.94H62.9031C63.9965 19.94 64.7565 19.76 65.1831 19.4C65.6231 19.04 65.8431 18.52 65.8431 17.84C65.8431 17.16 65.6231 16.64 65.1831 16.28C64.7565 15.9067 63.9965 15.72 62.9031 15.72H60.2831ZM60.2831 21.66V26.28H63.3031C64.3965 26.28 65.1565 26.0933 65.5831 25.72C66.0231 25.3333 66.2431 24.7467 66.2431 23.96C66.2431 23.1867 66.0231 22.6133 65.5831 22.24C65.1565 21.8533 64.3965 21.66 63.3031 21.66H60.2831Z" fill="#151515"/>
<path d="M73.7725 15.72H69.3125V14H80.1125V15.72H75.6525V28H73.7725V15.72Z" fill="#151515"/>
<path d="M87.0085 28.1601C86.1018 28.1601 85.2818 28.0134 84.5485 27.7201C83.8152 27.4268 83.1818 26.9934 82.6485 26.4201C82.1285 25.8468 81.7218 25.1401 81.4285 24.3001C81.1485 23.4468 81.0085 22.4734 81.0085 21.3801V20.4201C81.0085 19.3801 81.1485 18.4534 81.4285 17.6401C81.7218 16.8267 82.1285 16.1401 82.6485 15.5801C83.1818 15.0067 83.8152 14.5734 84.5485 14.2801C85.2952 13.9867 86.1152 13.8401 87.0085 13.8401C87.9018 13.8401 88.7152 13.9867 89.4485 14.2801C90.1952 14.5734 90.8285 15.0001 91.3485 15.5601C91.8818 16.1201 92.2886 16.8134 92.5686 17.6401C92.8619 18.4534 93.0085 19.3801 93.0085 20.4201V21.3801C93.0085 22.4734 92.8619 23.4401 92.5686 24.2801C92.2886 25.1201 91.8818 25.8268 91.3485 26.4001C90.8285 26.9734 90.1952 27.4134 89.4485 27.7201C88.7152 28.0134 87.9018 28.1601 87.0085 28.1601ZM87.0085 26.4401C88.2085 26.4401 89.1818 26.0268 89.9285 25.2001C90.6752 24.3601 91.0485 23.0868 91.0485 21.3801V20.4201C91.0485 19.6201 90.9485 18.9201 90.7485 18.3201C90.5485 17.7067 90.2685 17.2001 89.9085 16.8001C89.5618 16.3867 89.1418 16.0801 88.6485 15.8801C88.1552 15.6667 87.6085 15.5601 87.0085 15.5601C86.4085 15.5601 85.8618 15.6601 85.3685 15.8601C84.8752 16.0601 84.4485 16.3667 84.0885 16.7801C83.7285 17.1801 83.4485 17.6867 83.2485 18.3001C83.0618 18.9001 82.9685 19.6067 82.9685 20.4201V21.3801C82.9685 22.2334 83.0685 22.9801 83.2685 23.6201C83.4685 24.2468 83.7485 24.7734 84.1085 25.2001C84.4685 25.6134 84.8952 25.9268 85.3885 26.1401C85.8818 26.3401 86.4218 26.4401 87.0085 26.4401Z" fill="#151515"/>
<path d="M101.108 28.1601C100.228 28.1601 99.4278 28.0134 98.7078 27.7201C97.9878 27.4268 97.3678 26.9934 96.8478 26.4201C96.3278 25.8468 95.9211 25.1401 95.6278 24.3001C95.3478 23.4468 95.2078 22.4734 95.2078 21.3801V20.4201C95.2078 19.3801 95.3478 18.4534 95.6278 17.6401C95.9211 16.8267 96.3278 16.1401 96.8478 15.5801C97.3678 15.0067 97.9878 14.5734 98.7078 14.2801C99.4411 13.9867 100.241 13.8401 101.108 13.8401C101.908 13.8401 102.621 13.9534 103.248 14.1801C103.888 14.4067 104.434 14.7201 104.888 15.1201C105.354 15.5067 105.728 15.9667 106.008 16.5001C106.301 17.0201 106.501 17.5867 106.608 18.2001H104.608C104.501 17.8267 104.348 17.4801 104.148 17.1601C103.961 16.8401 103.721 16.5601 103.428 16.3201C103.148 16.0801 102.808 15.8934 102.408 15.7601C102.021 15.6267 101.588 15.5601 101.108 15.5601C100.548 15.5601 100.021 15.6667 99.5278 15.8801C99.0478 16.0801 98.6345 16.3867 98.2878 16.8001C97.9411 17.2134 97.6678 17.7201 97.4678 18.3201C97.2678 18.9201 97.1678 19.6201 97.1678 20.4201V21.3801C97.1678 22.2201 97.2678 22.9601 97.4678 23.6001C97.6678 24.2268 97.9411 24.7534 98.2878 25.1801C98.6478 25.5934 99.0678 25.9068 99.5478 26.1201C100.028 26.3334 100.548 26.4401 101.108 26.4401C102.081 26.4401 102.854 26.1801 103.428 25.6601C104.014 25.1268 104.408 24.4401 104.608 23.6001H106.608C106.501 24.2668 106.301 24.8801 106.008 25.4401C105.728 25.9868 105.354 26.4668 104.888 26.8801C104.434 27.2801 103.888 27.5934 103.248 27.8201C102.621 28.0468 101.908 28.1601 101.108 28.1601Z" fill="#151515"/>
<path d="M112.401 14H114.601L119.701 28H117.661L116.341 24.16H110.561L109.221 28H107.301L112.401 14ZM115.741 22.44L113.501 15.9H113.461L111.161 22.44H115.741Z" fill="#151515"/>
<path d="M120.895 26.44H121.095C121.655 26.44 122.088 26.28 122.395 25.96C122.715 25.6267 122.948 25.18 123.095 24.62C123.241 24.0467 123.328 23.3733 123.355 22.6C123.381 21.8267 123.395 20.9933 123.395 20.1V14H132.595V28H130.715V15.72H125.275V20.1C125.275 21.1267 125.248 22.1267 125.195 23.1C125.155 24.06 125.001 24.92 124.735 25.68C124.468 26.4267 124.055 27.0267 123.495 27.48C122.935 27.9333 122.135 28.16 121.095 28.16H120.895V26.44Z" fill="#151515"/>
<path d="M141.286 28.1601C140.379 28.1601 139.559 28.0134 138.826 27.7201C138.093 27.4268 137.459 26.9934 136.926 26.4201C136.406 25.8468 135.999 25.1401 135.706 24.3001C135.426 23.4468 135.286 22.4734 135.286 21.3801V20.4201C135.286 19.3801 135.426 18.4534 135.706 17.6401C135.999 16.8267 136.406 16.1401 136.926 15.5801C137.459 15.0067 138.093 14.5734 138.826 14.2801C139.573 13.9867 140.393 13.8401 141.286 13.8401C142.179 13.8401 142.993 13.9867 143.726 14.2801C144.473 14.5734 145.106 15.0001 145.626 15.5601C146.159 16.1201 146.566 16.8134 146.846 17.6401C147.139 18.4534 147.286 19.3801 147.286 20.4201V21.3801C147.286 22.4734 147.139 23.4401 146.846 24.2801C146.566 25.1201 146.159 25.8268 145.626 26.4001C145.106 26.9734 144.473 27.4134 143.726 27.7201C142.993 28.0134 142.179 28.1601 141.286 28.1601ZM141.286 26.4401C142.486 26.4401 143.459 26.0268 144.206 25.2001C144.953 24.3601 145.326 23.0868 145.326 21.3801V20.4201C145.326 19.6201 145.226 18.9201 145.026 18.3201C144.826 17.7067 144.546 17.2001 144.186 16.8001C143.839 16.3867 143.419 16.0801 142.926 15.8801C142.433 15.6667 141.886 15.5601 141.286 15.5601C140.686 15.5601 140.139 15.6601 139.646 15.8601C139.153 16.0601 138.726 16.3667 138.366 16.7801C138.006 17.1801 137.726 17.6867 137.526 18.3001C137.339 18.9001 137.246 19.6067 137.246 20.4201V21.3801C137.246 22.2334 137.346 22.9801 137.546 23.6201C137.746 24.2468 138.026 24.7734 138.386 25.2001C138.746 25.6134 139.173 25.9268 139.666 26.1401C140.159 26.3401 140.699 26.4401 141.286 26.4401Z" fill="#151515"/>
<path d="M149.985 14H151.865V19.94H159.105V14H160.985V28H159.105V21.66H151.865V28H149.985V14Z" fill="#151515"/>
</g>
</g>
<defs>
<clipPath id="clip0_865_308">
<rect width="161" height="21" fill="white" transform="translate(0 10.5)"/>
</clipPath>
</defs>
</svg>
