<?xml version="1.0" encoding="utf-8"?>
<svg viewBox="0 0 161 42" xmlns="http://www.w3.org/2000/svg" xmlns:xlink="http://www.w3.org/1999/xlink">

	<style>:root>svg{display:none}:root>svg:target{display:block}</style>

	<!-- Вывод -->
	<!-- <svg class="icon">
		<use xlink:href="img/sprite.svg#clock"></use>
	</svg> -->

	<svg fill="none" viewBox="0 0 24 24" id="alert" xmlns="http://www.w3.org/2000/svg">
		<path d="M12 16v-5m0-3h-.01M2 12C2 6.477 6.477 2 12 2s10 4.477 10 10-4.477 10-10 10S2 17.523 2 12Z" stroke="#2E58DB" stroke-linecap="round" stroke-linejoin="round"/>
	</svg>

	<svg fill="none" viewBox="0 0 24 24" id="arrow-left" xmlns="http://www.w3.org/2000/svg">
		<path d="m10 12 4-4v8l-4-4Z" fill="#151515"/>
	</svg>
	
	<svg fill="none" viewBox="0 0 24 24" id="arrow-right" xmlns="http://www.w3.org/2000/svg">
		<path d="m14 12-4-4v8l4-4Z" fill="#9CA5B3"/>
	</svg>
	
	<svg fill="none" viewBox="0 0 24 24" id="arrow-up" xmlns="http://www.w3.org/2000/svg">
		<path d="m12 10-4 4h8l-4-4Z" fill="#646970"/>
	</svg>
	
	<svg fill="none" viewBox="0 0 16 16" id="clock" xmlns="http://www.w3.org/2000/svg">
		<g clip-path="url(#ea)">
			<path d="M8 4v4l2.667 1.333m4-1.333A6.667 6.667 0 1 1 1.333 8a6.667 6.667 0 0 1 13.334 0Z" stroke="#646970" stroke-linecap="round" stroke-linejoin="round"/>
		</g>
		<defs>
			<clipPath id="ea">
				<path fill="#fff" d="M0 0h16v16H0z"/>
			</clipPath>
		</defs>
	</svg>
	
	<svg fill="none" viewBox="0 0 24 24" id="close" xmlns="http://www.w3.org/2000/svg">
		<path d="M17 7 7 17M7 7l10 10" stroke="#646970" stroke-linecap="round" stroke-linejoin="round"/>
	</svg>
	
	<svg fill="none" viewBox="0 0 24 24" id="drive" xmlns="http://www.w3.org/2000/svg">
		<path fill-rule="evenodd" clip-rule="evenodd" d="M7 8V3H5v5h2Zm1-5a1 1 0 0 0-1-1H5a1 1 0 0 0-1 1v5a1 1 0 0 0 1 1h2a1 1 0 0 0 1-1V6.5h3.5v11H8V16a1 1 0 0 0-1-1H5a1 1 0 0 0-1 1v5a1 1 0 0 0 1 1h2a1 1 0 0 0 1-1v-2.5h8V21a1 1 0 0 0 1 1h2a1 1 0 0 0 1-1v-5a1 1 0 0 0-1-1h-2a1 1 0 0 0-1 1v1.5h-3.5v-11H16V8a1 1 0 0 0 1 1h2a1 1 0 0 0 1-1V3a1 1 0 0 0-1-1h-2a1 1 0 0 0-1 1v2.5H8V3Zm9 0h2v5h-2V3ZM7 21v-5H5v5h2Zm10-5h2v5h-2v-5Z" fill="#2E58DB"/>
	</svg>
	
	<svg fill="none" viewBox="0 0 24 24" id="fire" xmlns="http://www.w3.org/2000/svg">
		<path d="M12 21.5a7 7 0 0 0 7-7c0-2-1-3.9-3-5.5s-3.5-4-4-6.5C11.5 5 10 7.4 8 9c-2 1.6-3 3.5-3 5.5a7 7 0 0 0 7 7Z" stroke="#2E58DB" stroke-linecap="round" stroke-linejoin="round"/>
	</svg>
	
	<svg fill="none" viewBox="0 0 16 16" id="location" xmlns="http://www.w3.org/2000/svg">
		<path d="M8 8.667a2 2 0 1 0 0-4 2 2 0 0 0 0 4Z" stroke="#646970" stroke-linecap="round" stroke-linejoin="round"/>
		<path d="M8 14.667c2.667-2.667 5.333-5.055 5.333-8a5.333 5.333 0 0 0-10.666 0c0 2.945 2.666 5.333 5.333 8Z" stroke="#646970" stroke-linecap="round" stroke-linejoin="round"/>
	</svg>
	
	<svg fill="none" viewBox="0 0 161 42" id="logo" xmlns="http://www.w3.org/2000/svg">
		<g clip-path="url(#ja)">
			<mask id="jb" style="mask-type:luminance" maskUnits="userSpaceOnUse" x="0" y="10" width="161" height="22">
				<path d="M161 10.5H0v21h161v-21Z" fill="#fff"/>
			</mask>
			<g mask="url(#jb)">
				<path d="M13.565 17.5H6.67c-.46 0-.902.178-1.231.497L.268 22.999c-.566.547-.175 1.501.616 1.501h8.875c.46 0 .902-.178 1.231-.497l5.697-5.509a3.544 3.544 0 0 1 2.463-.994H34v-7H22.956c-.46 0-.902.178-1.232.497l-5.696 5.509a3.544 3.544 0 0 1-2.463.994ZM34 24.5H14.813c-.46 0-.902.178-1.232.497L8.41 29.999c-.567.547-.176 1.501.616 1.501H34v-7Z" fill="#2E58DB"/>
				<path d="M49.1 14h2.2l5.1 14h-2.04l-1.32-3.84h-5.78L45.92 28H44l5.1-14Zm3.34 8.44L50.2 15.9h-.04l-2.3 6.54h4.58ZM58.403 14h4.6c1.694 0 2.913.333 3.66 1 .76.653 1.14 1.567 1.14 2.74 0 1.347-.587 2.333-1.76 2.96v.04c1.44.587 2.16 1.693 2.16 3.32 0 1.267-.38 2.24-1.14 2.92-.746.68-1.966 1.02-3.66 1.02h-5V14Zm1.88 1.72v4.22h2.62c1.093 0 1.854-.18 2.28-.54.44-.36.66-.88.66-1.56s-.22-1.2-.66-1.56c-.427-.373-1.187-.56-2.28-.56h-2.62Zm0 5.94v4.62h3.02c1.094 0 1.853-.187 2.28-.56.44-.387.66-.973.66-1.76 0-.773-.22-1.347-.66-1.72-.427-.387-1.186-.58-2.28-.58h-3.02ZM73.772 15.72h-4.46V14h10.8v1.72h-4.46V28h-1.88V15.72ZM87.008 28.16c-.906 0-1.726-.147-2.46-.44a5.2 5.2 0 0 1-1.9-1.3c-.52-.573-.926-1.28-1.22-2.12-.28-.853-.42-1.827-.42-2.92v-.96c0-1.04.14-1.967.42-2.78.294-.813.7-1.5 1.22-2.06a5.199 5.199 0 0 1 1.9-1.3c.747-.293 1.567-.44 2.46-.44.894 0 1.707.147 2.44.44.747.293 1.38.72 1.9 1.28.534.56.94 1.253 1.22 2.08.294.813.44 1.74.44 2.78v.96c0 1.093-.146 2.06-.44 2.9-.28.84-.686 1.547-1.22 2.12a5.187 5.187 0 0 1-1.9 1.32c-.733.293-1.546.44-2.44.44Zm0-1.72c1.2 0 2.174-.413 2.92-1.24.747-.84 1.12-2.113 1.12-3.82v-.96c0-.8-.1-1.5-.3-2.1-.2-.613-.48-1.12-.84-1.52a3.184 3.184 0 0 0-1.26-.92 4.088 4.088 0 0 0-1.64-.32c-.6 0-1.146.1-1.64.3-.493.2-.92.507-1.28.92-.36.4-.64.907-.84 1.52-.186.6-.28 1.307-.28 2.12v.96c0 .853.1 1.6.3 2.24.2.627.48 1.153.84 1.58.36.413.787.727 1.28.94.494.2 1.034.3 1.62.3ZM101.108 28.16c-.88 0-1.68-.147-2.4-.44a5.053 5.053 0 0 1-1.86-1.3c-.52-.573-.927-1.28-1.22-2.12-.28-.853-.42-1.827-.42-2.92v-.96c0-1.04.14-1.967.42-2.78.293-.813.7-1.5 1.22-2.06a5.052 5.052 0 0 1 1.86-1.3 6.402 6.402 0 0 1 2.4-.44c.8 0 1.513.113 2.14.34.64.227 1.186.54 1.64.94.466.387.84.847 1.12 1.38.293.52.493 1.087.6 1.7h-2a4.062 4.062 0 0 0-.46-1.04c-.187-.32-.427-.6-.72-.84-.28-.24-.62-.427-1.02-.56a3.97 3.97 0 0 0-1.3-.2c-.56 0-1.087.107-1.58.32-.48.2-.894.507-1.24.92-.347.413-.62.92-.82 1.52-.2.6-.3 1.3-.3 2.1v.96c0 .84.1 1.58.3 2.22.2.627.473 1.153.82 1.58.36.413.78.727 1.26.94.48.213 1 .32 1.56.32.973 0 1.746-.26 2.32-.78.586-.533.98-1.22 1.18-2.06h2a5.985 5.985 0 0 1-.6 1.84 4.893 4.893 0 0 1-1.12 1.44c-.454.4-1 .713-1.64.94-.627.227-1.34.34-2.14.34ZM112.401 14h2.2l5.1 14h-2.04l-1.32-3.84h-5.78l-1.34 3.84h-1.92l5.1-14Zm3.34 8.44-2.24-6.54h-.04l-2.3 6.54h4.58ZM120.895 26.44h.2c.56 0 .993-.16 1.3-.48.32-.333.553-.78.7-1.34.146-.573.233-1.247.26-2.02.026-.773.04-1.607.04-2.5V14h9.2v14h-1.88V15.72h-5.44v4.38c0 1.027-.027 2.027-.08 3-.04.96-.194 1.82-.46 2.58-.267.747-.68 1.347-1.24 1.8-.56.453-1.36.68-2.4.68h-.2v-1.72ZM141.286 28.16c-.907 0-1.727-.147-2.46-.44a5.2 5.2 0 0 1-1.9-1.3c-.52-.573-.927-1.28-1.22-2.12-.28-.853-.42-1.827-.42-2.92v-.96c0-1.04.14-1.967.42-2.78.293-.813.7-1.5 1.22-2.06a5.199 5.199 0 0 1 1.9-1.3c.747-.293 1.567-.44 2.46-.44s1.707.147 2.44.44c.747.293 1.38.72 1.9 1.28.533.56.94 1.253 1.22 2.08.293.813.44 1.74.44 2.78v.96c0 1.093-.147 2.06-.44 2.9-.28.84-.687 1.547-1.22 2.12a5.185 5.185 0 0 1-1.9 1.32c-.733.293-1.547.44-2.44.44Zm0-1.72c1.2 0 2.173-.413 2.92-1.24.747-.84 1.12-2.113 1.12-3.82v-.96c0-.8-.1-1.5-.3-2.1-.2-.613-.48-1.12-.84-1.52a3.188 3.188 0 0 0-1.26-.92 4.087 4.087 0 0 0-1.64-.32c-.6 0-1.147.1-1.64.3-.493.2-.92.507-1.28.92-.36.4-.64.907-.84 1.52-.187.6-.28 1.307-.28 2.12v.96c0 .853.1 1.6.3 2.24.2.627.48 1.153.84 1.58.36.413.787.727 1.28.94.493.2 1.033.3 1.62.3ZM149.985 14h1.88v5.94h7.24V14h1.88v14h-1.88v-6.34h-7.24V28h-1.88V14Z" fill="#151515"/>
			</g>
		</g>
		<defs>
			<clipPath id="ja">
				<path fill="#fff" transform="translate(0 10.5)" d="M0 0h161v21H0z"/>
			</clipPath>
		</defs>
	</svg>
	
	<svg fill="none" viewBox="0 0 24 24" id="power" xmlns="http://www.w3.org/2000/svg">
		<path d="M13 2 4.093 12.688c-.348.418-.523.628-.525.804a.5.5 0 0 0 .185.397c.138.111.41.111.955.111H12l-1 8 8.907-10.688c.348-.418.523-.628.525-.804a.5.5 0 0 0-.185-.397c-.138-.111-.41-.111-.955-.111H12l1-8Z" stroke="#2E58DB" stroke-linecap="round" stroke-linejoin="round"/>
	</svg>
	
	<svg fill="none" viewBox="0 0 24 24" id="search" xmlns="http://www.w3.org/2000/svg">
		<path d="m21 21-3.5-3.5m2.5-6a8.5 8.5 0 1 1-17 0 8.5 8.5 0 0 1 17 0Z" stroke="#9CA5B3" stroke-linecap="round" stroke-linejoin="round"/>
	</svg>
	
	<svg fill="none" viewBox="0 0 24 24" id="speedometer" xmlns="http://www.w3.org/2000/svg">
		<path d="M5 12a7 7 0 0 1 7-7m4.5 2.5L12 12m10 0c0 5.523-4.477 10-10 10S2 17.523 2 12 6.477 2 12 2s10 4.477 10 10Zm-9 0a1 1 0 1 1-2 0 1 1 0 0 1 2 0Z" stroke="#2E58DB" stroke-linecap="round" stroke-linejoin="round"/>
	</svg>
	
</svg>